<svg width="448" height="512" xmlns="http://www.w3.org/2000/svg" class="svg-inline--fa fa-shopping-bag fa-w-14">

 <g>
  <title>background</title>
  <rect fill="none" id="canvas_background" height="402" width="582" y="-1" x="-1"/>
 </g>
 <g>
  <title>Layer 1</title>
  <path id="svg_1" d="m352,160l0,-32c0,-70.58 -57.421,-128 -128,-128c-70.58,0 -128,57.42 -128,128l0,32l-96,0l0,272c0,44.183 35.817,80 80,80l288,0c44.183,0 80,-35.817 80,-80l0,-272l-96,0zm-192,-32c0,-35.29 28.71,-64 64,-64s64,28.71 64,64l0,32l-128,0l0,-32zm160,120c-13.255,0 -24,-10.745 -24,-24s10.745,-24 24,-24s24,10.745 24,24s-10.745,24 -24,24zm-192,0c-13.255,0 -24,-10.745 -24,-24s10.745,-24 24,-24s24,10.745 24,24s-10.745,24 -24,24z" fill="#333333"/>
 </g>
</svg>